<?xml version="1.0" encoding="utf-8"?>
<!-- Generator: Adobe Illustrator 18.1.1, SVG Export Plug-In . SVG Version: 6.00 Build 0)  -->
<svg version="1.1" id="Capa_1" xmlns="http://www.w3.org/2000/svg" xmlns:xlink="http://www.w3.org/1999/xlink" x="0px" y="0px"
	 viewBox="-229 102.9 52.1 52.1" enable-background="new -229 102.9 52.1 52.1" xml:space="preserve">
<g>
	<g>
		<path fill="#FFFFFF" d="M-180.7,109.6c-0.3-0.3-0.7-0.5-1.2-0.5c-0.2,0-0.7,0.2-1.4,0.6c-0.7,0.4-1.5,0.8-2.3,1.2
			c-0.8,0.5-1.8,0.9-2.9,1.2c-1.1,0.4-2.2,0.6-3.1,0.6c-0.9,0-1.7-0.2-2.3-0.5c-2.2-1-4.2-1.8-5.8-2.3c-1.6-0.5-3.4-0.8-5.3-0.8
			c-3.3,0-7,1.1-11.2,3.2c-0.9,0.4-1.5,0.8-1.9,1l-0.4-2.9c0.9-0.8,1.5-1.9,1.5-3.2c0-2.3-1.9-4.2-4.2-4.2s-4.3,1.9-4.3,4.2
			c0,1.5,0.8,2.9,2,3.6l5.7,42.1c0.2,1.3,1.2,2.2,2.5,2.2c0.1,0,0.2,0,0.3,0c1.4-0.2,2.3-1.4,2.1-2.8l-2.3-16.9
			c4.2-2.1,7.8-3.1,10.9-3.1c1.3,0,2.6,0.2,3.8,0.6c1.2,0.4,2.3,0.8,3.1,1.3c0.8,0.5,1.8,0.9,2.9,1.3c1.1,0.4,2.2,0.6,3.3,0.6
			c2.7,0,6-1,9.8-3.1c0.5-0.2,0.8-0.5,1-0.7c0.2-0.2,0.3-0.6,0.3-1v-20.3C-180.2,110.3-180.4,109.9-180.7,109.6z"/>
	</g>
</g>
</svg>
