<?xml version="1.0" encoding="utf-8"?>
<!-- Generator: Adobe Illustrator 18.1.1, SVG Export Plug-In . SVG Version: 6.00 Build 0)  -->
<svg version="1.1" id="Capa_1" xmlns="http://www.w3.org/2000/svg" xmlns:xlink="http://www.w3.org/1999/xlink" x="0px" y="0px"
	 viewBox="19 -147.8 550.8 550.8" enable-background="new 19 -147.8 550.8 550.8" xml:space="preserve">
<g>
	<g>
		<path fill="#FFFFFF" d="M520.6,344c12.4,0,23.1-4.1,32.2-12.2l-156-156.1c-3.7,2.7-7.4,5.3-10.8,7.8
			c-11.7,8.6-21.2,15.3-28.4,20.1c-7.3,4.8-17,9.7-29,14.8c-12.1,5-23.4,7.5-33.8,7.5h-0.3h-0.3c-10.5,0-21.7-2.5-33.8-7.5
			c-12.1-5-21.8-9.9-29-14.8c-7.3-4.8-16.8-11.5-28.4-20.1c-3.3-2.4-6.9-5-10.8-7.8L35.9,331.8c9.1,8.1,19.9,12.2,32.2,12.2H520.6z"
			/>
		<path fill="#FFFFFF" d="M50,77.5c-11.7-7.8-22-16.7-31-26.7v237.4l137.5-137.5C129,131.4,93.6,107.1,50,77.5z"/>
		<path fill="#FFFFFF" d="M539.1,77.5c-41.9,28.3-77.4,52.7-106.8,73.2l137.5,137.5V50.8C561,60.6,550.7,69.5,539.1,77.5z"/>
		<path fill="#FFFFFF" d="M520.6-88.8H68.2c-15.8,0-27.9,5.3-36.4,16c-8.5,10.7-12.8,24-12.8,40c0,12.9,5.6,26.9,16.9,42
			c11.3,15.1,23.3,26.9,36,35.5c7,4.9,28,19.5,63,43.8c18.9,13.1,35.4,24.5,49.5,34.4c12.1,8.4,22.4,15.7,31,21.7
			c1,0.7,2.5,1.8,4.6,3.3c2.2,1.6,5,3.6,8.5,6.1c6.7,4.8,12.2,8.7,16.6,11.7c4.4,3,9.7,6.3,16,10c6.2,3.7,12.1,6.5,17.7,8.3
			c5.5,1.8,10.7,2.8,15.4,2.8h0.3h0.3c4.7,0,9.8-0.9,15.4-2.8c5.5-1.8,11.4-4.6,17.7-8.3c6.2-3.7,11.6-7,16-10
			c4.4-3,9.9-6.9,16.6-11.7c3.5-2.5,6.3-4.5,8.5-6.1c2.1-1.5,3.6-2.6,4.6-3.3c6.7-4.7,17.1-11.9,31.1-21.6
			c25.5-17.7,63-43.8,112.7-78.3c15-10.4,27.5-23.1,37.5-37.8c10-14.7,15.1-30.2,15.1-46.4c0-13.5-4.9-25.1-14.6-34.7
			C545.5-84,533.9-88.8,520.6-88.8z"/>
	</g>
</g>
</svg>
